<svg width="1440" height="760" viewBox="0 0 1440 760" fill="none" xmlns="http://www.w3.org/2000/svg">
  <rect width="1440" height="760" rx="16" fill="#FAFBFD"/>
  <rect x="20" y="20" width="1400" height="56" rx="10" fill="#17171C"/>
  <text x="46" y="56" fill="#F9F9FA" font-family="Inter, Arial" font-size="18" font-weight="700">Estimation Memory Graph</text>
  <rect x="20" y="94" width="900" height="646" rx="12" fill="#FFFFFF" stroke="#D1D2D6"/>
  <text x="48" y="134" fill="#17171C" font-family="Inter, Arial" font-size="20" font-weight="700">Reusable Estimation Knowledge</text>
  <rect x="48" y="156" width="844" height="540" rx="10" fill="#F8F9FB"/>
  <circle cx="210" cy="290" r="58" fill="#17171C"/>
  <text x="156" y="296" fill="#F9F9FA" font-family="Inter, Arial" font-size="12">Power</text>
  <text x="147" y="314" fill="#F9F9FA" font-family="Inter, Arial" font-size="12">Components</text>
  <circle cx="430" cy="238" r="46" fill="#FF1E5A"/>
  <text x="392" y="242" fill="#FFFFFF" font-family="Inter, Arial" font-size="12">High-</text>
  <text x="389" y="260" fill="#FFFFFF" font-family="Inter, Arial" font-size="12">Precision</text>
  <circle cx="648" cy="332" r="64" fill="#17171C"/>
  <text x="603" y="336" fill="#F9F9FA" font-family="Inter, Arial" font-size="12">Offer</text>
  <text x="585" y="354" fill="#F9F9FA" font-family="Inter, Arial" font-size="12">Calculations</text>
  <circle cx="816" cy="254" r="42" fill="#FF1E5A"/>
  <text x="786" y="258" fill="#FFFFFF" font-family="Inter, Arial" font-size="12">Lead</text>
  <text x="779" y="276" fill="#FFFFFF" font-family="Inter, Arial" font-size="12">Time Risk</text>
  <line x1="268" y1="278" x2="384" y2="248" stroke="#A4A7B4" stroke-width="4"/>
  <line x1="474" y1="258" x2="586" y2="308" stroke="#A4A7B4" stroke-width="4"/>
  <line x1="710" y1="308" x2="774" y2="272" stroke="#A4A7B4" stroke-width="4"/>
  <rect x="72" y="462" width="250" height="108" rx="10" fill="#FFFFFF" stroke="#D1D2D6"/>
  <text x="92" y="496" fill="#17171C" font-family="Inter, Arial" font-size="13" font-weight="600">Case DU-1142</text>
  <text x="92" y="520" fill="#5E6172" font-family="Inter, Arial" font-size="12">Margin: +8%</text>
  <text x="92" y="542" fill="#5E6172" font-family="Inter, Arial" font-size="12">Cycle: 6.1 days</text>
  <rect x="340" y="462" width="250" height="108" rx="10" fill="#FFF2F6"/>
  <text x="360" y="496" fill="#17171C" font-family="Inter, Arial" font-size="13" font-weight="600">Case BI-9081</text>
  <text x="360" y="520" fill="#17171C" font-family="Inter, Arial" font-size="12">Risk: missing tolerance data</text>
  <text x="360" y="542" fill="#17171C" font-family="Inter, Arial" font-size="12">Mitigation: standard checklist</text>
  <rect x="608" y="462" width="250" height="108" rx="10" fill="#FFFFFF" stroke="#D1D2D6"/>
  <text x="628" y="496" fill="#17171C" font-family="Inter, Arial" font-size="13" font-weight="600">Case WE-7310</text>
  <text x="628" y="520" fill="#5E6172" font-family="Inter, Arial" font-size="12">Outcome: lost on lead-time</text>
  <text x="628" y="542" fill="#5E6172" font-family="Inter, Arial" font-size="12">Playbook: fallback proposal</text>
  <rect x="938" y="94" width="482" height="646" rx="12" fill="#FFFFFF" stroke="#D1D2D6"/>
  <text x="966" y="134" fill="#17171C" font-family="Inter, Arial" font-size="18" font-weight="700">Estimate Reuse Panel</text>
  <rect x="966" y="156" width="426" height="52" rx="8" fill="#F6F7FA"/>
  <text x="986" y="188" fill="#17171C" font-family="Inter, Arial" font-size="13">Search: transformer snout with custom insulation</text>
  <rect x="966" y="220" width="426" height="122" rx="10" fill="#FFE2E8"/>
  <text x="986" y="254" fill="#17171C" font-family="Inter, Arial" font-size="13" font-weight="600">Best reusable estimate package</text>
  <text x="986" y="278" fill="#17171C" font-family="Inter, Arial" font-size="12">Source cases: DU-1142, BI-9081, WE-6301</text>
  <text x="986" y="300" fill="#17171C" font-family="Inter, Arial" font-size="12">Confidence: 87% | Review required: cost factors</text>
  <rect x="966" y="356" width="204" height="52" rx="8" fill="#17171C"/>
  <text x="1026" y="388" fill="#F9F9FA" font-family="Inter, Arial" font-size="13">Apply Template</text>
  <rect x="1188" y="356" width="204" height="52" rx="8" fill="#FF1E5A"/>
  <text x="1248" y="388" fill="#FFFFFF" font-family="Inter, Arial" font-size="13">Open Source Cases</text>
</svg>
