<svg width="1440" height="760" viewBox="0 0 1440 760" fill="none" xmlns="http://www.w3.org/2000/svg">
  <rect width="1440" height="760" rx="16" fill="#FAFBFD"/>
  <rect x="20" y="20" width="1400" height="56" rx="10" fill="#17171C"/>
  <text x="46" y="56" fill="#F9F9FA" font-family="Inter, Arial" font-size="18" font-weight="700">Opportunity Structuring Engine</text>
  <rect x="20" y="94" width="620" height="646" rx="12" fill="#FFFFFF" stroke="#D1D2D6"/>
  <text x="48" y="134" fill="#17171C" font-family="Inter, Arial" font-size="20" font-weight="700">Incoming Opportunity</text>
  <rect x="48" y="152" width="564" height="70" rx="10" fill="#F6F7FA"/>
  <text x="68" y="188" fill="#17171C" font-family="Inter, Arial" font-size="13">Request includes RFQ email, 3 attachments (PDF, image, BOM), and draft timeline.</text>
  <text x="48" y="258" fill="#17171C" font-family="Inter, Arial" font-size="16" font-weight="700">Missing Fields Detected</text>
  <rect x="48" y="274" width="564" height="54" rx="8" fill="#FFF2F6"/>
  <text x="68" y="306" fill="#17171C" font-family="Inter, Arial" font-size="13">Material grade not specified for 2 components.</text>
  <rect x="48" y="336" width="564" height="54" rx="8" fill="#FFF2F6"/>
  <text x="68" y="368" fill="#17171C" font-family="Inter, Arial" font-size="13">Delivery window unclear between 14 and 21 days.</text>
  <rect x="48" y="398" width="564" height="54" rx="8" fill="#FFF2F6"/>
  <text x="68" y="430" fill="#17171C" font-family="Inter, Arial" font-size="13">Tolerance requirements missing for drawing #A-7712.</text>
  <text x="48" y="494" fill="#17171C" font-family="Inter, Arial" font-size="16" font-weight="700">Suggested Clarifications</text>
  <rect x="48" y="512" width="564" height="162" rx="10" fill="#17171C"/>
  <text x="68" y="548" fill="#F9F9FA" font-family="Inter, Arial" font-size="13">1. Confirm material family for all high-voltage components.</text>
  <text x="68" y="576" fill="#F9F9FA" font-family="Inter, Arial" font-size="13">2. Validate requested lead time and priority level by line item.</text>
  <text x="68" y="604" fill="#F9F9FA" font-family="Inter, Arial" font-size="13">3. Request missing tolerance data before architect sizing.</text>
  <rect x="658" y="94" width="762" height="300" rx="12" fill="#FFFFFF" stroke="#D1D2D6"/>
  <text x="686" y="134" fill="#17171C" font-family="Inter, Arial" font-size="20" font-weight="700">Similar Case Retrieval</text>
  <rect x="686" y="152" width="706" height="62" rx="8" fill="#F6F7FA"/>
  <text x="706" y="188" fill="#17171C" font-family="Inter, Arial" font-size="13">Case DU-1142 | Similarity 89% | Outcome won | Margin +8%</text>
  <rect x="686" y="224" width="706" height="62" rx="8" fill="#F6F7FA"/>
  <text x="706" y="260" fill="#17171C" font-family="Inter, Arial" font-size="13">Case BI-9081 | Similarity 84% | Outcome won | Delay due to missing specs</text>
  <rect x="686" y="296" width="706" height="62" rx="8" fill="#F6F7FA"/>
  <text x="706" y="332" fill="#17171C" font-family="Inter, Arial" font-size="13">Case WE-7310 | Similarity 78% | Outcome lost | Price pressure at final round</text>
  <rect x="658" y="412" width="762" height="328" rx="12" fill="#FFFFFF" stroke="#D1D2D6"/>
  <text x="686" y="452" fill="#17171C" font-family="Inter, Arial" font-size="20" font-weight="700">Routing and Approval</text>
  <rect x="686" y="470" width="706" height="106" rx="10" fill="#FFE2E8"/>
  <text x="706" y="508" fill="#17171C" font-family="Inter, Arial" font-size="13">Architect assignment: Industrial Automation Team B</text>
  <text x="706" y="534" fill="#17171C" font-family="Inter, Arial" font-size="13">Risk tag: Medium - requires tolerance clarification before pricing.</text>
  <rect x="686" y="590" width="220" height="54" rx="8" fill="#17171C"/>
  <text x="748" y="624" fill="#F9F9FA" font-family="Inter, Arial" font-size="14">Send to Architect</text>
  <rect x="922" y="590" width="220" height="54" rx="8" fill="#FF1E5A"/>
  <text x="975" y="624" fill="#FFFFFF" font-family="Inter, Arial" font-size="14">Send to Sales</text>
  <rect x="1158" y="590" width="234" height="54" rx="8" fill="#F6F7FA"/>
  <text x="1218" y="624" fill="#17171C" font-family="Inter, Arial" font-size="14">Export Brief</text>
</svg>
